<?xml version="1.0" encoding="utf-8"?>
<!-- Generator: Adobe Illustrator 26.2.1, SVG Export Plug-In . SVG Version: 6.00 Build 0)  -->
<svg version="1.1" id="Capa_1" xmlns="http://www.w3.org/2000/svg" xmlns:xlink="http://www.w3.org/1999/xlink" x="0px" y="0px"
	 viewBox="0 0 458 600" style="enable-background:new 0 0 458 600;" xml:space="preserve">
<style type="text/css">
	.st0{fill:#00003F;}
</style>
<path class="st0" d="M36.5,491.7c0.6,0.4,1,1,1.3,1.6c0.3,0.6,0.5,1.2,0.5,1.8c0,0.8-0.2,1.6-0.7,2.4h0.1l-14.1,20.1v20.2
	c0,1.2-0.4,2.2-1.2,3c-0.8,0.7-1.7,1.1-2.8,1.1c-1.1,0-2.1-0.4-3-1.1c-0.8-0.8-1.2-1.8-1.2-3v-20.2c-2.2-3.3-4.6-6.6-7.1-10
	c-2.4-3.5-4.7-6.8-7-10.1h0.1c-0.5-0.7-0.8-1.6-0.8-2.4c0-0.6,0.1-1.3,0.4-1.8c0.3-0.6,0.8-1.2,1.4-1.6c0.7-0.5,1.5-0.7,2.2-0.7
	c0.6,0,1.2,0.2,1.8,0.5c0.6,0.3,1.1,0.8,1.5,1.4l11.6,16.5l11.3-16.5c0.4-0.6,0.9-1,1.5-1.4c0.6-0.3,1.3-0.5,1.9-0.5
	C35,490.9,35.7,491.2,36.5,491.7L36.5,491.7z M75.1,533.9c1.1,0,2.1,0.4,2.9,1.2c0.8,0.8,1.2,1.7,1.2,2.8c0,1.2-0.4,2.2-1.2,3
	c-0.8,0.7-1.8,1.1-2.9,1.1H52.4c-1.1,0-2-0.4-2.8-1.1c-0.8-0.8-1.2-1.8-1.2-3v-43.1c0-1.1,0.4-2,1.1-2.8c0.7-0.9,1.7-1.3,2.9-1.3
	h22.7c1.1,0,2.1,0.4,2.9,1.3c0.8,0.8,1.2,1.7,1.2,2.8c0,1.2-0.4,2.2-1.2,3c-0.8,0.7-1.8,1.1-2.9,1.1H56.3v11.7h13.1
	c1.1,0,2,0.4,2.8,1.2c0.8,0.8,1.2,1.8,1.2,2.9c0,1.1-0.4,2.1-1.2,2.9c-0.8,0.8-1.7,1.1-2.8,1.1H56.3v15.2H75.1z M104.4,498.9
	c-1.9,0-3.5,0.7-4.7,2c-1.2,1.3-1.9,2.9-1.9,4.9c0.1,1.8,0.8,3.3,2,4.6c1.2,1.3,2.8,1.9,4.7,1.9h5.9c1.9,0,3.7,0.4,5.5,1.2
	c1.8,0.7,3.3,1.8,4.7,3.1c1.4,1.3,2.5,2.9,3.3,4.7c0.9,1.8,1.3,3.8,1.3,5.9c0,2-0.4,3.9-1.2,5.7c-0.8,1.8-1.8,3.3-3.1,4.7
	c-1.3,1.3-2.8,2.4-4.7,3.2c-1.8,0.7-3.7,1.1-5.7,1.2H95c-1.2,0-2.2-0.4-3-1.1c-0.7-0.7-1.1-1.7-1.1-3c0-1.1,0.4-2,1.1-2.8
	c0.8-0.8,1.8-1.2,3-1.2h15.3c0.9,0,1.7-0.2,2.5-0.5c0.9-0.4,1.6-0.9,2.2-1.4c0.6-0.6,1.2-1.4,1.5-2.2c0.4-0.8,0.6-1.7,0.6-2.6
	c0-1-0.2-1.8-0.6-2.6c-0.4-0.8-0.9-1.5-1.4-2.1c-0.6-0.6-1.3-1.1-2.2-1.4c-0.8-0.4-1.6-0.6-2.5-0.6h-5.9c-1.9-0.1-3.8-0.5-5.6-1.2
	c-1.8-0.7-3.3-1.8-4.7-3.1c-1.3-1.3-2.4-2.9-3.2-4.7c-0.8-1.8-1.2-3.8-1.2-5.9c0-1.9,0.4-3.8,1.1-5.5c0.8-1.8,1.9-3.4,3.2-4.8
	c1.3-1.4,2.9-2.5,4.7-3.3c1.8-0.9,3.7-1.3,5.8-1.3h15.3c1.1,0,2,0.4,2.7,1.3c0.7,0.8,1.2,1.8,1.3,3c-0.1,1.1-0.5,2.1-1.2,2.8
	c-0.7,0.7-1.7,1.1-2.8,1.1H104.4z M177,542c-2.1,0-4-0.4-5.9-1.3c-1.8-0.9-3.3-2-4.7-3.5c-1.3-1.4-2.4-3.1-3.3-5
	c-0.9-1.9-1.4-3.9-1.6-6v-31.5c0-1.1,0.4-2,1.1-2.8c0.8-0.9,1.7-1.3,2.8-1.3c1.2,0,2.1,0.4,2.9,1.3c0.8,0.8,1.1,1.7,1.1,2.8v30.9
	c0,1.1,0.2,2.1,0.6,3c0.4,0.9,1,1.6,1.7,2.3c0.7,0.7,1.5,1.2,2.4,1.6c0.9,0.4,1.9,0.6,2.9,0.6c1,0,2-0.2,2.9-0.6
	c0.9-0.4,1.7-0.9,2.4-1.6c0.7-0.7,1.2-1.5,1.6-2.3c0.4-0.9,0.6-1.9,0.6-3v-30.9c0-1.1,0.4-2,1.1-2.8c0.8-0.9,1.7-1.3,3-1.3
	c1.1,0,2.1,0.4,2.8,1.3c0.8,0.8,1.2,1.7,1.2,2.8v30.9c0,1.1,0.2,2.1,0.6,3c0.4,0.9,1,1.6,1.6,2.3c0.7,0.7,1.5,1.2,2.3,1.6
	c0.9,0.4,1.9,0.6,2.9,0.6c2.1,0,3.9-0.7,5.4-2.2c1.4-1.4,2.2-3.2,2.2-5.3v-30.9c0-1.1,0.4-2,1.2-2.8c0.8-0.9,1.8-1.3,2.9-1.3
	c1.1,0,2,0.4,2.8,1.3c0.9,0.8,1.3,1.7,1.3,2.8v31.5c-0.1,2.1-0.5,4.1-1.4,5.9c-0.8,1.9-1.9,3.5-3.4,5c-1.4,1.4-3.1,2.6-5,3.5
	c-1.9,0.9-3.9,1.3-6,1.3c-1.9,0-3.8-0.4-5.8-1.2c-1.9-0.9-3.8-2.1-5.5-3.9c-1.9,1.6-3.8,2.8-5.8,3.7C181,541.5,179,541.9,177,542z
	 M253.3,533.9c1.1,0,2.1,0.4,2.9,1.2c0.8,0.8,1.2,1.7,1.2,2.8c0,1.2-0.4,2.2-1.2,3c-0.8,0.7-1.8,1.1-2.9,1.1h-22.7
	c-1.1,0-2-0.4-2.8-1.1c-0.8-0.8-1.2-1.8-1.2-3v-43.1c0-1.1,0.4-2,1.1-2.8c0.7-0.9,1.7-1.3,2.9-1.3h22.7c1.1,0,2.1,0.4,2.9,1.3
	c0.8,0.8,1.2,1.7,1.2,2.8c0,1.2-0.4,2.2-1.2,3c-0.8,0.7-1.8,1.1-2.9,1.1h-18.8v11.7h13.1c1.1,0,2,0.4,2.8,1.2
	c0.8,0.8,1.2,1.8,1.2,2.9c0,1.1-0.4,2.1-1.2,2.9c-0.8,0.8-1.7,1.1-2.8,1.1h-13.1v15.2H253.3z M324.7,490.7c1.1,0,2.1,0.4,2.9,1.3
	c0.8,0.8,1.2,1.7,1.2,2.8c0,1.2-0.4,2.2-1.2,3c-0.8,0.7-1.8,1.1-2.9,1.1h-9.6v39c0,1.2-0.4,2.2-1.1,3c-0.7,0.7-1.7,1.1-2.9,1.1
	c-1.2,0-2.1-0.4-2.9-1.1c-0.7-0.8-1.1-1.8-1.1-3v-39h-9.7c-1.1,0-2-0.4-2.8-1.1c-0.8-0.8-1.2-1.8-1.2-3c0-1.1,0.4-2,1.2-2.8
	c0.8-0.9,1.7-1.3,2.8-1.3H324.7z M365.6,533.9c1.1,0,2.1,0.4,2.9,1.2c0.8,0.8,1.2,1.7,1.2,2.8c0,1.2-0.4,2.2-1.2,3
	c-0.8,0.7-1.8,1.1-2.9,1.1h-22.7c-1.1,0-2-0.4-2.8-1.1c-0.8-0.8-1.2-1.8-1.2-3v-43.1c0-1.1,0.4-2,1.1-2.8c0.8-0.9,1.7-1.3,2.9-1.3
	h22.7c1.1,0,2.1,0.4,2.9,1.3c0.8,0.8,1.2,1.7,1.2,2.8c0,1.2-0.4,2.2-1.2,3c-0.8,0.7-1.8,1.1-2.9,1.1h-18.8v11.7h13.1
	c1.1,0,2,0.4,2.8,1.2c0.8,0.8,1.2,1.8,1.2,2.9c0,1.1-0.4,2.1-1.2,2.9c-0.8,0.8-1.7,1.1-2.8,1.1h-13.1v15.2H365.6z M406.1,526.7
	c1.2,0,2.2,0.4,3,1.2c0.8,0.8,1.2,1.8,1.2,2.9c0,0.2,0,0.5-0.1,0.9c-0.1,0.4-0.2,0.6-0.3,0.8c-1.2,2.8-3,5.1-5.6,6.9
	c-2.6,1.8-5.5,2.6-8.7,2.6c-2.1,0-4.1-0.4-5.9-1.2c-1.8-0.8-3.4-1.9-4.8-3.3s-2.5-3-3.4-4.9c-0.8-1.9-1.2-3.9-1.3-6v-20.5
	c0-1.8,0.3-3.4,0.8-4.8c0.5-1.6,1.3-3,2.2-4.3c1-1.3,2.1-2.4,3.4-3.3c1.3-1,2.7-1.7,4.2-2.2c1.6-0.5,3.2-0.8,4.9-0.8
	c1.6,0,3.1,0.2,4.6,0.7c1.5,0.5,2.9,1.1,4.1,2c1.2,0.8,2.3,1.8,3.3,3c1,1.2,1.7,2.5,2.3,3.9c0.1,0.1,0.1,0.2,0.1,0.3
	c0.2,0.4,0.3,0.9,0.3,1.4c0,1.1-0.4,2.1-1.2,2.9c-0.8,0.8-1.8,1.2-3,1.2c-0.8,0-1.6-0.2-2.2-0.6c-0.6-0.4-1.2-1-1.5-1.7
	c0-0.1,0-0.2-0.1-0.2c-0.1-0.1-0.1-0.1-0.2-0.2c-0.6-1.2-1.5-2.2-2.6-3.1c-1.1-0.8-2.4-1.2-3.9-1.2c-0.9,0-1.8,0.2-2.6,0.6
	c-0.8,0.3-1.5,0.8-2.2,1.4c-0.6,0.6-1.2,1.3-1.6,2.1c-0.4,0.8-0.6,1.6-0.6,2.5v21.8c0.1,1.8,0.8,3.4,2.2,4.7c1.4,1.2,3,1.8,4.9,1.8
	c1.4,0,2.7-0.4,3.9-1.2c1.2-0.8,2.1-1.8,2.6-3c0.1-0.1,0.1-0.2,0.2-0.2c0.1-0.1,0.1-0.1,0.1-0.2c0.4-0.7,0.9-1.3,1.5-1.7
	C404.5,526.9,405.3,526.7,406.1,526.7z M451.2,490.8c1.1,0,2,0.4,2.9,1.2c0.9,0.7,1.3,1.7,1.3,2.8V538c0,1-0.4,2-1.3,2.8
	c-0.9,0.8-1.8,1.2-2.9,1.2c-1.1,0-2-0.4-2.8-1.1c-0.8-0.8-1.2-1.8-1.2-2.9v-17.5h-18.3V538c0,1.1-0.4,2.1-1.2,2.9
	c-0.7,0.7-1.7,1.1-2.9,1.1c-1.1,0-2-0.4-2.8-1.1c-0.7-0.7-1.2-1.7-1.2-2.9v-43.2c0-1.2,0.4-2.2,1.3-2.9c0.9-0.7,1.8-1.1,2.7-1.1
	c1.2,0,2.1,0.4,2.9,1.2c0.8,0.8,1.2,1.7,1.2,2.8v17.5h18.3v-17.5c0-1.1,0.4-2,1.2-2.8C449.2,491.2,450.1,490.8,451.2,490.8z"/>
<path class="st0" d="M320.1,68.5c0-42.2,23-65,69-68.3c45.7,3.5,68.5,26.3,68.5,68.5v137.5c0,85.9-34.2,145.9-102.9,180.1
	c-34.2,17.2-68.7,25.7-102.9,25.7h-45.9c-34.2,0-68.7-8.5-102.9-25.7C33.9,352.1-0.4,291.9,0,206.2V68.7c0-42.2,23-65,68.7-68.5
	c45.9,3.3,68.7,26.3,68.7,68.3v137.2c0,48.7,30.4,75.3,91.1,80.2c61.1-4.8,91.6-31.5,91.6-80.2V68.5z M169.8,68.5
	c0-42.2,19.1-65,57-68.5c38.5,3.5,57.8,26.3,57.8,68.5V206c0,28.5-19.3,43.7-57.6,45.9c-38.1-2.4-57.2-17.6-57.2-45.9V68.5z"/>
</svg>
